<mxfile host="app.diagrams.net" modified="2021-08-12T13:03:37.480Z" agent="5.0 (Windows NT 10.0; Win64; x64) AppleWebKit/537.36 (KHTML, like Gecko) Chrome/92.0.4515.131 Safari/537.36" etag="YgJ7vNUe4otnpcJcDAvP" version="14.9.6" type="github">
  <diagram id="C5RBs43oDa-KdzZeNtuy" name="Page-1">
    <mxGraphModel dx="657" dy="1074" grid="1" gridSize="10" guides="1" tooltips="1" connect="1" arrows="1" fold="1" page="1" pageScale="1" pageWidth="827" pageHeight="1169" math="0" shadow="0">
      <root>
        <mxCell id="WIyWlLk6GJQsqaUBKTNV-0" />
        <mxCell id="WIyWlLk6GJQsqaUBKTNV-1" parent="WIyWlLk6GJQsqaUBKTNV-0" />
        <mxCell id="kFoRuCMK9JsCO8jz3s3C-45" value="" style="endArrow=block;endSize=10;endFill=0;shadow=0;strokeWidth=1;rounded=0;edgeStyle=elbowEdgeStyle;elbow=vertical;strokeColor=none;" edge="1" parent="WIyWlLk6GJQsqaUBKTNV-1">
          <mxGeometry width="160" relative="1" as="geometry">
            <mxPoint x="1050" y="842" as="sourcePoint" />
            <mxPoint x="900" y="740" as="targetPoint" />
            <Array as="points">
              <mxPoint x="1010" y="782" />
            </Array>
          </mxGeometry>
        </mxCell>
        <mxCell id="kFoRuCMK9JsCO8jz3s3C-46" value="E-commerce" style="swimlane;fontStyle=1;align=center;verticalAlign=top;childLayout=stackLayout;horizontal=1;startSize=26;horizontalStack=0;resizeParent=1;resizeParentMax=0;resizeLast=0;collapsible=1;marginBottom=0;" vertex="1" parent="WIyWlLk6GJQsqaUBKTNV-1">
          <mxGeometry x="680" y="410" width="160" height="52" as="geometry" />
        </mxCell>
        <mxCell id="kFoRuCMK9JsCO8jz3s3C-47" value="Nombre" style="text;strokeColor=none;fillColor=none;align=left;verticalAlign=top;spacingLeft=4;spacingRight=4;overflow=hidden;rotatable=0;points=[[0,0.5],[1,0.5]];portConstraint=eastwest;" vertex="1" parent="kFoRuCMK9JsCO8jz3s3C-46">
          <mxGeometry y="26" width="160" height="26" as="geometry" />
        </mxCell>
        <mxCell id="kFoRuCMK9JsCO8jz3s3C-48" value="Articulos" style="swimlane;fontStyle=0;childLayout=stackLayout;horizontal=1;startSize=26;fillColor=none;horizontalStack=0;resizeParent=1;resizeParentMax=0;resizeLast=0;collapsible=1;marginBottom=0;" vertex="1" parent="WIyWlLk6GJQsqaUBKTNV-1">
          <mxGeometry x="470" y="560" width="250" height="260" as="geometry" />
        </mxCell>
        <mxCell id="kFoRuCMK9JsCO8jz3s3C-49" value="Nombre" style="text;strokeColor=none;fillColor=none;align=left;verticalAlign=top;spacingLeft=4;spacingRight=4;overflow=hidden;rotatable=0;points=[[0,0.5],[1,0.5]];portConstraint=eastwest;" vertex="1" parent="kFoRuCMK9JsCO8jz3s3C-48">
          <mxGeometry y="26" width="250" height="26" as="geometry" />
        </mxCell>
        <mxCell id="kFoRuCMK9JsCO8jz3s3C-50" value="Descripción" style="text;strokeColor=none;fillColor=none;align=left;verticalAlign=top;spacingLeft=4;spacingRight=4;overflow=hidden;rotatable=0;points=[[0,0.5],[1,0.5]];portConstraint=eastwest;" vertex="1" parent="kFoRuCMK9JsCO8jz3s3C-48">
          <mxGeometry y="52" width="250" height="26" as="geometry" />
        </mxCell>
        <mxCell id="kFoRuCMK9JsCO8jz3s3C-51" value="Categoría a la que pertenece" style="text;strokeColor=none;fillColor=none;align=left;verticalAlign=top;spacingLeft=4;spacingRight=4;overflow=hidden;rotatable=0;points=[[0,0.5],[1,0.5]];portConstraint=eastwest;" vertex="1" parent="kFoRuCMK9JsCO8jz3s3C-48">
          <mxGeometry y="78" width="250" height="26" as="geometry" />
        </mxCell>
        <mxCell id="kFoRuCMK9JsCO8jz3s3C-52" value="Precio" style="text;strokeColor=none;fillColor=none;align=left;verticalAlign=top;spacingLeft=4;spacingRight=4;overflow=hidden;rotatable=0;points=[[0,0.5],[1,0.5]];portConstraint=eastwest;" vertex="1" parent="kFoRuCMK9JsCO8jz3s3C-48">
          <mxGeometry y="104" width="250" height="26" as="geometry" />
        </mxCell>
        <mxCell id="kFoRuCMK9JsCO8jz3s3C-53" value="Moneda(Pesos o Dólares)" style="text;strokeColor=none;fillColor=none;align=left;verticalAlign=top;spacingLeft=4;spacingRight=4;overflow=hidden;rotatable=0;points=[[0,0.5],[1,0.5]];portConstraint=eastwest;" vertex="1" parent="kFoRuCMK9JsCO8jz3s3C-48">
          <mxGeometry y="130" width="250" height="26" as="geometry" />
        </mxCell>
        <mxCell id="kFoRuCMK9JsCO8jz3s3C-54" value="Cantidad de comprados" style="text;strokeColor=none;fillColor=none;align=left;verticalAlign=top;spacingLeft=4;spacingRight=4;overflow=hidden;rotatable=0;points=[[0,0.5],[1,0.5]];portConstraint=eastwest;" vertex="1" parent="kFoRuCMK9JsCO8jz3s3C-48">
          <mxGeometry y="156" width="250" height="26" as="geometry" />
        </mxCell>
        <mxCell id="kFoRuCMK9JsCO8jz3s3C-55" value="Imágenes" style="text;strokeColor=none;fillColor=none;align=left;verticalAlign=top;spacingLeft=4;spacingRight=4;overflow=hidden;rotatable=0;points=[[0,0.5],[1,0.5]];portConstraint=eastwest;" vertex="1" parent="kFoRuCMK9JsCO8jz3s3C-48">
          <mxGeometry y="182" width="250" height="26" as="geometry" />
        </mxCell>
        <mxCell id="kFoRuCMK9JsCO8jz3s3C-56" value="Productos relacionados" style="text;strokeColor=none;fillColor=none;align=left;verticalAlign=top;spacingLeft=4;spacingRight=4;overflow=hidden;rotatable=0;points=[[0,0.5],[1,0.5]];portConstraint=eastwest;" vertex="1" parent="kFoRuCMK9JsCO8jz3s3C-48">
          <mxGeometry y="208" width="250" height="26" as="geometry" />
        </mxCell>
        <mxCell id="kFoRuCMK9JsCO8jz3s3C-57" value="Puntuación y comentarios" style="text;strokeColor=none;fillColor=none;align=left;verticalAlign=top;spacingLeft=4;spacingRight=4;overflow=hidden;rotatable=0;points=[[0,0.5],[1,0.5]];portConstraint=eastwest;" vertex="1" parent="kFoRuCMK9JsCO8jz3s3C-48">
          <mxGeometry y="234" width="250" height="26" as="geometry" />
        </mxCell>
        <mxCell id="kFoRuCMK9JsCO8jz3s3C-58" value="" style="endArrow=classic;html=1;entryX=0.5;entryY=0;entryDx=0;entryDy=0;exitX=0.398;exitY=0.973;exitDx=0;exitDy=0;exitPerimeter=0;" edge="1" parent="WIyWlLk6GJQsqaUBKTNV-1" source="kFoRuCMK9JsCO8jz3s3C-47" target="kFoRuCMK9JsCO8jz3s3C-48">
          <mxGeometry width="50" height="50" relative="1" as="geometry">
            <mxPoint x="758" y="410" as="sourcePoint" />
            <mxPoint x="780" y="610" as="targetPoint" />
          </mxGeometry>
        </mxCell>
        <mxCell id="kFoRuCMK9JsCO8jz3s3C-59" value="Carrito de compras" style="swimlane;fontStyle=0;childLayout=stackLayout;horizontal=1;startSize=26;fillColor=none;horizontalStack=0;resizeParent=1;resizeParentMax=0;resizeLast=0;collapsible=1;marginBottom=0;" vertex="1" parent="WIyWlLk6GJQsqaUBKTNV-1">
          <mxGeometry x="774" y="560" width="380" height="248" as="geometry" />
        </mxCell>
        <mxCell id="kFoRuCMK9JsCO8jz3s3C-60" value="articulo selecionado para compra" style="text;strokeColor=none;fillColor=none;align=left;verticalAlign=top;spacingLeft=4;spacingRight=4;overflow=hidden;rotatable=0;points=[[0,0.5],[1,0.5]];portConstraint=eastwest;" vertex="1" parent="kFoRuCMK9JsCO8jz3s3C-59">
          <mxGeometry y="26" width="380" height="26" as="geometry" />
        </mxCell>
        <mxCell id="kFoRuCMK9JsCO8jz3s3C-61" value="El costo unitario de un artículo." style="text;strokeColor=none;fillColor=none;align=left;verticalAlign=top;spacingLeft=4;spacingRight=4;overflow=hidden;rotatable=0;points=[[0,0.5],[1,0.5]];portConstraint=eastwest;" vertex="1" parent="kFoRuCMK9JsCO8jz3s3C-59">
          <mxGeometry y="52" width="380" height="28" as="geometry" />
        </mxCell>
        <mxCell id="kFoRuCMK9JsCO8jz3s3C-62" value="La cantidad a comprar de cada artículo." style="text;strokeColor=none;fillColor=none;align=left;verticalAlign=top;spacingLeft=4;spacingRight=4;overflow=hidden;rotatable=0;points=[[0,0.5],[1,0.5]];portConstraint=eastwest;" vertex="1" parent="kFoRuCMK9JsCO8jz3s3C-59">
          <mxGeometry y="80" width="380" height="28" as="geometry" />
        </mxCell>
        <mxCell id="kFoRuCMK9JsCO8jz3s3C-63" value="El costo total del costo unitario por la cantidad respectiva." style="text;strokeColor=none;fillColor=none;align=left;verticalAlign=top;spacingLeft=4;spacingRight=4;overflow=hidden;rotatable=0;points=[[0,0.5],[1,0.5]];portConstraint=eastwest;" vertex="1" parent="kFoRuCMK9JsCO8jz3s3C-59">
          <mxGeometry y="108" width="380" height="28" as="geometry" />
        </mxCell>
        <mxCell id="kFoRuCMK9JsCO8jz3s3C-64" value="El subtotal que será la sumatoria de los costos total por artículo." style="text;strokeColor=none;fillColor=none;align=left;verticalAlign=top;spacingLeft=4;spacingRight=4;overflow=hidden;rotatable=0;points=[[0,0.5],[1,0.5]];portConstraint=eastwest;" vertex="1" parent="kFoRuCMK9JsCO8jz3s3C-59">
          <mxGeometry y="136" width="380" height="28" as="geometry" />
        </mxCell>
        <mxCell id="kFoRuCMK9JsCO8jz3s3C-65" value="Costo de envío" style="text;strokeColor=none;fillColor=none;align=left;verticalAlign=top;spacingLeft=4;spacingRight=4;overflow=hidden;rotatable=0;points=[[0,0.5],[1,0.5]];portConstraint=eastwest;" vertex="1" parent="kFoRuCMK9JsCO8jz3s3C-59">
          <mxGeometry y="164" width="380" height="28" as="geometry" />
        </mxCell>
        <mxCell id="kFoRuCMK9JsCO8jz3s3C-66" value="El costo total." style="text;strokeColor=none;fillColor=none;align=left;verticalAlign=top;spacingLeft=4;spacingRight=4;overflow=hidden;rotatable=0;points=[[0,0.5],[1,0.5]];portConstraint=eastwest;" vertex="1" parent="kFoRuCMK9JsCO8jz3s3C-59">
          <mxGeometry y="192" width="380" height="28" as="geometry" />
        </mxCell>
        <mxCell id="kFoRuCMK9JsCO8jz3s3C-67" value="Deberá seleccionar forma de pago." style="text;strokeColor=none;fillColor=none;align=left;verticalAlign=top;spacingLeft=4;spacingRight=4;overflow=hidden;rotatable=0;points=[[0,0.5],[1,0.5]];portConstraint=eastwest;" vertex="1" parent="kFoRuCMK9JsCO8jz3s3C-59">
          <mxGeometry y="220" width="380" height="28" as="geometry" />
        </mxCell>
        <mxCell id="kFoRuCMK9JsCO8jz3s3C-68" value="Usuario" style="swimlane;fontStyle=1;align=center;verticalAlign=top;childLayout=stackLayout;horizontal=1;startSize=26;horizontalStack=0;resizeParent=1;resizeParentMax=0;resizeLast=0;collapsible=1;marginBottom=0;" vertex="1" parent="WIyWlLk6GJQsqaUBKTNV-1">
          <mxGeometry x="690" y="270" width="160" height="86" as="geometry" />
        </mxCell>
        <mxCell id="kFoRuCMK9JsCO8jz3s3C-69" value="Nombre" style="text;strokeColor=none;fillColor=none;align=left;verticalAlign=top;spacingLeft=4;spacingRight=4;overflow=hidden;rotatable=0;points=[[0,0.5],[1,0.5]];portConstraint=eastwest;" vertex="1" parent="kFoRuCMK9JsCO8jz3s3C-68">
          <mxGeometry y="26" width="160" height="26" as="geometry" />
        </mxCell>
        <mxCell id="kFoRuCMK9JsCO8jz3s3C-70" value="" style="line;strokeWidth=1;fillColor=none;align=left;verticalAlign=middle;spacingTop=-1;spacingLeft=3;spacingRight=3;rotatable=0;labelPosition=right;points=[];portConstraint=eastwest;" vertex="1" parent="kFoRuCMK9JsCO8jz3s3C-68">
          <mxGeometry y="52" width="160" height="8" as="geometry" />
        </mxCell>
        <mxCell id="kFoRuCMK9JsCO8jz3s3C-71" value="Contraseña" style="text;strokeColor=none;fillColor=none;align=left;verticalAlign=top;spacingLeft=4;spacingRight=4;overflow=hidden;rotatable=0;points=[[0,0.5],[1,0.5]];portConstraint=eastwest;" vertex="1" parent="kFoRuCMK9JsCO8jz3s3C-68">
          <mxGeometry y="60" width="160" height="26" as="geometry" />
        </mxCell>
        <mxCell id="kFoRuCMK9JsCO8jz3s3C-72" value="" style="endArrow=classic;html=1;entryX=0.5;entryY=0;entryDx=0;entryDy=0;" edge="1" parent="WIyWlLk6GJQsqaUBKTNV-1" source="kFoRuCMK9JsCO8jz3s3C-71" target="kFoRuCMK9JsCO8jz3s3C-46">
          <mxGeometry width="50" height="50" relative="1" as="geometry">
            <mxPoint x="670" y="670" as="sourcePoint" />
            <mxPoint x="720" y="620" as="targetPoint" />
          </mxGeometry>
        </mxCell>
        <mxCell id="kFoRuCMK9JsCO8jz3s3C-76" value="" style="endArrow=classic;html=1;entryX=0.5;entryY=0;entryDx=0;entryDy=0;exitX=0.804;exitY=0.984;exitDx=0;exitDy=0;exitPerimeter=0;" edge="1" parent="WIyWlLk6GJQsqaUBKTNV-1" source="kFoRuCMK9JsCO8jz3s3C-71" target="kFoRuCMK9JsCO8jz3s3C-59">
          <mxGeometry width="50" height="50" relative="1" as="geometry">
            <mxPoint x="953.0799999999999" y="523.6380000000004" as="sourcePoint" />
            <mxPoint x="975" y="510" as="targetPoint" />
          </mxGeometry>
        </mxCell>
        <mxCell id="kFoRuCMK9JsCO8jz3s3C-77" value="Puede tener" style="text;html=1;strokeColor=none;fillColor=none;align=center;verticalAlign=middle;whiteSpace=wrap;rounded=0;" vertex="1" parent="WIyWlLk6GJQsqaUBKTNV-1">
          <mxGeometry x="920" y="410" width="40" height="20" as="geometry" />
        </mxCell>
        <mxCell id="kFoRuCMK9JsCO8jz3s3C-78" value="Tiene" style="text;html=1;strokeColor=none;fillColor=none;align=center;verticalAlign=middle;whiteSpace=wrap;rounded=0;" vertex="1" parent="WIyWlLk6GJQsqaUBKTNV-1">
          <mxGeometry x="610" y="500" width="40" height="20" as="geometry" />
        </mxCell>
        <mxCell id="kFoRuCMK9JsCO8jz3s3C-79" value="Método de envió" style="swimlane;fontStyle=0;childLayout=stackLayout;horizontal=1;startSize=26;fillColor=none;horizontalStack=0;resizeParent=1;resizeParentMax=0;resizeLast=0;collapsible=1;marginBottom=0;" vertex="1" parent="WIyWlLk6GJQsqaUBKTNV-1">
          <mxGeometry x="774" y="850" width="140" height="78" as="geometry" />
        </mxCell>
        <mxCell id="kFoRuCMK9JsCO8jz3s3C-80" value="Dirección" style="text;strokeColor=none;fillColor=none;align=left;verticalAlign=top;spacingLeft=4;spacingRight=4;overflow=hidden;rotatable=0;points=[[0,0.5],[1,0.5]];portConstraint=eastwest;" vertex="1" parent="kFoRuCMK9JsCO8jz3s3C-79">
          <mxGeometry y="26" width="140" height="26" as="geometry" />
        </mxCell>
        <mxCell id="kFoRuCMK9JsCO8jz3s3C-81" value="Pais" style="text;strokeColor=none;fillColor=none;align=left;verticalAlign=top;spacingLeft=4;spacingRight=4;overflow=hidden;rotatable=0;points=[[0,0.5],[1,0.5]];portConstraint=eastwest;" vertex="1" parent="kFoRuCMK9JsCO8jz3s3C-79">
          <mxGeometry y="52" width="140" height="26" as="geometry" />
        </mxCell>
        <mxCell id="kFoRuCMK9JsCO8jz3s3C-82" value="Tipo de envió" style="swimlane;fontStyle=0;childLayout=stackLayout;horizontal=1;startSize=26;fillColor=none;horizontalStack=0;resizeParent=1;resizeParentMax=0;resizeLast=0;collapsible=1;marginBottom=0;" vertex="1" parent="WIyWlLk6GJQsqaUBKTNV-1">
          <mxGeometry x="740" y="1010" width="140" height="104" as="geometry" />
        </mxCell>
        <mxCell id="kFoRuCMK9JsCO8jz3s3C-83" value="Premiun" style="text;strokeColor=none;fillColor=none;align=left;verticalAlign=top;spacingLeft=4;spacingRight=4;overflow=hidden;rotatable=0;points=[[0,0.5],[1,0.5]];portConstraint=eastwest;" vertex="1" parent="kFoRuCMK9JsCO8jz3s3C-82">
          <mxGeometry y="26" width="140" height="26" as="geometry" />
        </mxCell>
        <mxCell id="kFoRuCMK9JsCO8jz3s3C-84" value="Express" style="text;strokeColor=none;fillColor=none;align=left;verticalAlign=top;spacingLeft=4;spacingRight=4;overflow=hidden;rotatable=0;points=[[0,0.5],[1,0.5]];portConstraint=eastwest;" vertex="1" parent="kFoRuCMK9JsCO8jz3s3C-82">
          <mxGeometry y="52" width="140" height="26" as="geometry" />
        </mxCell>
        <mxCell id="kFoRuCMK9JsCO8jz3s3C-85" value="Standard" style="text;strokeColor=none;fillColor=none;align=left;verticalAlign=top;spacingLeft=4;spacingRight=4;overflow=hidden;rotatable=0;points=[[0,0.5],[1,0.5]];portConstraint=eastwest;" vertex="1" parent="kFoRuCMK9JsCO8jz3s3C-82">
          <mxGeometry y="78" width="140" height="26" as="geometry" />
        </mxCell>
        <mxCell id="kFoRuCMK9JsCO8jz3s3C-86" value="Extends" style="endArrow=block;endSize=16;endFill=0;html=1;exitX=0.5;exitY=0;exitDx=0;exitDy=0;entryX=0.246;entryY=0.968;entryDx=0;entryDy=0;entryPerimeter=0;" edge="1" parent="WIyWlLk6GJQsqaUBKTNV-1" source="kFoRuCMK9JsCO8jz3s3C-82" target="kFoRuCMK9JsCO8jz3s3C-81">
          <mxGeometry x="1" y="-1291" width="160" relative="1" as="geometry">
            <mxPoint x="930" y="980" as="sourcePoint" />
            <mxPoint x="1090" y="980" as="targetPoint" />
            <mxPoint x="980" y="-451" as="offset" />
          </mxGeometry>
        </mxCell>
        <mxCell id="kFoRuCMK9JsCO8jz3s3C-87" value="" style="endArrow=classic;html=1;exitX=0.217;exitY=0.971;exitDx=0;exitDy=0;exitPerimeter=0;entryX=0.5;entryY=0;entryDx=0;entryDy=0;" edge="1" parent="WIyWlLk6GJQsqaUBKTNV-1" source="kFoRuCMK9JsCO8jz3s3C-67" target="kFoRuCMK9JsCO8jz3s3C-79">
          <mxGeometry width="50" height="50" relative="1" as="geometry">
            <mxPoint x="810" y="760" as="sourcePoint" />
            <mxPoint x="860" y="710" as="targetPoint" />
          </mxGeometry>
        </mxCell>
        <mxCell id="kFoRuCMK9JsCO8jz3s3C-88" value="Tiene" style="text;html=1;strokeColor=none;fillColor=none;align=center;verticalAlign=middle;whiteSpace=wrap;rounded=0;" vertex="1" parent="WIyWlLk6GJQsqaUBKTNV-1">
          <mxGeometry x="850" y="820" width="40" height="20" as="geometry" />
        </mxCell>
        <mxCell id="kFoRuCMK9JsCO8jz3s3C-89" value="" style="endArrow=classic;startArrow=classic;html=1;entryX=0;entryY=0.5;entryDx=0;entryDy=0;exitX=1;exitY=0.5;exitDx=0;exitDy=0;" edge="1" parent="WIyWlLk6GJQsqaUBKTNV-1" source="kFoRuCMK9JsCO8jz3s3C-53" target="kFoRuCMK9JsCO8jz3s3C-63">
          <mxGeometry width="50" height="50" relative="1" as="geometry">
            <mxPoint x="720" y="682" as="sourcePoint" />
            <mxPoint x="840" y="660" as="targetPoint" />
          </mxGeometry>
        </mxCell>
        <mxCell id="kFoRuCMK9JsCO8jz3s3C-90" value="Categoria" style="swimlane;fontStyle=0;childLayout=stackLayout;horizontal=1;startSize=26;fillColor=none;horizontalStack=0;resizeParent=1;resizeParentMax=0;resizeLast=0;collapsible=1;marginBottom=0;" vertex="1" parent="WIyWlLk6GJQsqaUBKTNV-1">
          <mxGeometry x="470" y="880" width="140" height="182" as="geometry" />
        </mxCell>
        <mxCell id="kFoRuCMK9JsCO8jz3s3C-91" value="Nombre" style="text;strokeColor=none;fillColor=none;align=left;verticalAlign=top;spacingLeft=4;spacingRight=4;overflow=hidden;rotatable=0;points=[[0,0.5],[1,0.5]];portConstraint=eastwest;" vertex="1" parent="kFoRuCMK9JsCO8jz3s3C-90">
          <mxGeometry y="26" width="140" height="26" as="geometry" />
        </mxCell>
        <mxCell id="kFoRuCMK9JsCO8jz3s3C-92" value="Descripción" style="text;strokeColor=none;fillColor=none;align=left;verticalAlign=top;spacingLeft=4;spacingRight=4;overflow=hidden;rotatable=0;points=[[0,0.5],[1,0.5]];portConstraint=eastwest;" vertex="1" parent="kFoRuCMK9JsCO8jz3s3C-90">
          <mxGeometry y="52" width="140" height="26" as="geometry" />
        </mxCell>
        <mxCell id="kFoRuCMK9JsCO8jz3s3C-95" value="Precio" style="text;strokeColor=none;fillColor=none;align=left;verticalAlign=top;spacingLeft=4;spacingRight=4;overflow=hidden;rotatable=0;points=[[0,0.5],[1,0.5]];portConstraint=eastwest;" vertex="1" parent="kFoRuCMK9JsCO8jz3s3C-90">
          <mxGeometry y="78" width="140" height="26" as="geometry" />
        </mxCell>
        <mxCell id="kFoRuCMK9JsCO8jz3s3C-96" value="Moneda" style="text;strokeColor=none;fillColor=none;align=left;verticalAlign=top;spacingLeft=4;spacingRight=4;overflow=hidden;rotatable=0;points=[[0,0.5],[1,0.5]];portConstraint=eastwest;" vertex="1" parent="kFoRuCMK9JsCO8jz3s3C-90">
          <mxGeometry y="104" width="140" height="26" as="geometry" />
        </mxCell>
        <mxCell id="kFoRuCMK9JsCO8jz3s3C-97" value="Cantidad de comprados" style="text;strokeColor=none;fillColor=none;align=left;verticalAlign=top;spacingLeft=4;spacingRight=4;overflow=hidden;rotatable=0;points=[[0,0.5],[1,0.5]];portConstraint=eastwest;" vertex="1" parent="kFoRuCMK9JsCO8jz3s3C-90">
          <mxGeometry y="130" width="140" height="26" as="geometry" />
        </mxCell>
        <mxCell id="kFoRuCMK9JsCO8jz3s3C-100" value="Imagenes" style="text;strokeColor=none;fillColor=none;align=left;verticalAlign=top;spacingLeft=4;spacingRight=4;overflow=hidden;rotatable=0;points=[[0,0.5],[1,0.5]];portConstraint=eastwest;" vertex="1" parent="kFoRuCMK9JsCO8jz3s3C-90">
          <mxGeometry y="156" width="140" height="26" as="geometry" />
        </mxCell>
        <mxCell id="kFoRuCMK9JsCO8jz3s3C-94" value="" style="endArrow=classic;html=1;exitX=0.593;exitY=0.016;exitDx=0;exitDy=0;exitPerimeter=0;" edge="1" parent="WIyWlLk6GJQsqaUBKTNV-1" source="kFoRuCMK9JsCO8jz3s3C-90">
          <mxGeometry width="50" height="50" relative="1" as="geometry">
            <mxPoint x="720" y="840" as="sourcePoint" />
            <mxPoint x="590" y="820" as="targetPoint" />
          </mxGeometry>
        </mxCell>
      </root>
    </mxGraphModel>
  </diagram>
</mxfile>
